<mxfile host="65bd71144e">
    <diagram id="-L42QKAym5MquaoeJ29K" name="System View">
        <mxGraphModel dx="2236" dy="1769" grid="1" gridSize="10" guides="1" tooltips="1" connect="1" arrows="1" fold="1" page="1" pageScale="1" pageWidth="850" pageHeight="1100" math="0" shadow="0">
            <root>
                <mxCell id="0"/>
                <mxCell id="1" parent="0"/>
                <mxCell id="62" value="System in Nutshell" style="swimlane;fontSize=16;fontFamily=Arial;fontStyle=1;startSize=30;fillColor=#1ba1e2;strokeColor=#006EAF;fontColor=#ffffff;" parent="1" vertex="1">
                    <mxGeometry x="-845" y="-1099" width="430" height="339" as="geometry">
                        <mxRectangle x="-845" y="-1099" width="325" height="30" as="alternateBounds"/>
                    </mxGeometry>
                </mxCell>
                <mxCell id="4" value="&lt;span style=&quot;&quot; lang=&quot;en-PK&quot;&gt;&lt;font face=&quot;Arial&quot;&gt;Provide all the Mentoring, control and management services to different industries&lt;/font&gt;&lt;/span&gt;" style="rounded=0;whiteSpace=wrap;html=1;align=left;fillColor=#dae8fc;strokeColor=#6c8ebf;container=0;" parent="62" vertex="1">
                    <mxGeometry x="10" y="37" width="410" height="60" as="geometry"/>
                </mxCell>
                <mxCell id="5" value="&lt;ol type=&quot;1&quot; start=&quot;1&quot; style=&quot;margin-top:0cm&quot;&gt;&lt;font face=&quot;Arial&quot;&gt;&lt;br&gt; &lt;/font&gt;&lt;li class=&quot;MsoNormal&quot;&gt;&lt;font face=&quot;Arial&quot;&gt;The system must be modular so new&lt;br&gt;     features and services can be added updated or removed easily.&lt;/font&gt;&lt;/li&gt; &lt;li class=&quot;MsoNormal&quot;&gt;&lt;font face=&quot;Arial&quot;&gt;Every Module will work independently&lt;/font&gt;&lt;/li&gt; &lt;li class=&quot;MsoNormal&quot;&gt;&lt;font face=&quot;Arial&quot;&gt;Core will contain all the common part of&lt;br&gt;     the code that is reusable by all the modules.&lt;/font&gt;&lt;/li&gt;&lt;br&gt;&lt;/ol&gt;" style="rounded=0;whiteSpace=wrap;html=1;align=left;fillColor=#dae8fc;strokeColor=#6c8ebf;container=0;" parent="62" vertex="1">
                    <mxGeometry x="10" y="107" width="410" height="130" as="geometry"/>
                </mxCell>
                <mxCell id="63" value="Developemen Environment" style="swimlane;fontSize=16;fontFamily=Arial;fillColor=#d80073;strokeColor=#A50040;fontColor=#ffffff;" parent="1" vertex="1">
                    <mxGeometry x="-378" y="-1099" width="370" height="337" as="geometry">
                        <mxRectangle x="-360" y="-1099" width="343" height="30" as="alternateBounds"/>
                    </mxGeometry>
                </mxCell>
                <mxCell id="20" value="" style="endArrow=block;html=1;startArrow=block;startFill=1;endFill=1;entryX=0.5;entryY=1;entryDx=0;entryDy=0;exitX=0.5;exitY=0;exitDx=0;exitDy=0;fillColor=#e51400;strokeColor=#B20000;" parent="63" source="12" target="11" edge="1">
                    <mxGeometry width="100" height="100" relative="1" as="geometry">
                        <mxPoint x="148" y="427" as="sourcePoint"/>
                        <mxPoint x="248" y="327" as="targetPoint"/>
                    </mxGeometry>
                </mxCell>
                <mxCell id="28" value="" style="endArrow=block;html=1;startArrow=block;startFill=1;endFill=1;entryX=0.5;entryY=1;entryDx=0;entryDy=0;exitX=0.5;exitY=0;exitDx=0;exitDy=0;fillColor=#e51400;strokeColor=#B20000;" parent="63" source="27" target="12" edge="1">
                    <mxGeometry width="100" height="100" relative="1" as="geometry">
                        <mxPoint x="208" y="327" as="sourcePoint"/>
                        <mxPoint x="208" y="267" as="targetPoint"/>
                    </mxGeometry>
                </mxCell>
                <mxCell id="31" value="" style="endArrow=block;html=1;startArrow=block;startFill=1;endFill=1;entryX=-0.029;entryY=0.573;entryDx=0;entryDy=0;exitX=1.031;exitY=0.383;exitDx=0;exitDy=0;fillColor=#e51400;strokeColor=#B20000;entryPerimeter=0;exitPerimeter=0;" parent="63" source="15" target="12" edge="1">
                    <mxGeometry width="100" height="100" relative="1" as="geometry">
                        <mxPoint x="88" y="312" as="sourcePoint"/>
                        <mxPoint x="88" y="282" as="targetPoint"/>
                    </mxGeometry>
                </mxCell>
                <mxCell id="33" value="" style="endArrow=block;html=1;startArrow=block;startFill=1;endFill=1;entryX=0.5;entryY=1;entryDx=0;entryDy=0;exitX=0.5;exitY=0;exitDx=0;exitDy=0;fillColor=#e51400;strokeColor=#B20000;" parent="63" source="15" target="29" edge="1">
                    <mxGeometry width="100" height="100" relative="1" as="geometry">
                        <mxPoint x="97.5" y="157" as="sourcePoint"/>
                        <mxPoint x="97.5" y="127" as="targetPoint"/>
                    </mxGeometry>
                </mxCell>
                <mxCell id="11" value="Git&amp;nbsp; &amp;nbsp; &amp;nbsp; &amp;nbsp; /&amp;nbsp; GitHub&lt;div&gt;Local&amp;nbsp; &amp;nbsp;/&amp;nbsp; &amp;nbsp; Cloud&lt;/div&gt;" style="rounded=0;whiteSpace=wrap;html=1;fontSize=14;fontStyle=1;fillColor=#f0a30a;fontColor=#000000;strokeColor=#BD7000;" parent="63" vertex="1">
                    <mxGeometry x="223" y="37" width="130" height="60" as="geometry"/>
                </mxCell>
                <mxCell id="12" value="&amp;nbsp; &amp;nbsp; &amp;nbsp; &amp;nbsp; &amp;nbsp;VS code&lt;div&gt;&lt;font style=&quot;font-size: 12px; font-weight: normal;&quot;&gt;C# Div Kit&lt;/font&gt;&lt;/div&gt;&lt;div&gt;&lt;font style=&quot;font-size: 12px; font-weight: normal;&quot;&gt;DotNet SDK&lt;/font&gt;&lt;/div&gt;&lt;div&gt;&lt;font style=&quot;font-size: 12px; font-weight: normal;&quot;&gt;Avalonia EXT + Template&lt;/font&gt;&lt;/div&gt;&lt;div&gt;&lt;font style=&quot;font-size: 12px; font-weight: normal;&quot;&gt;&lt;br&gt;&lt;/font&gt;&lt;/div&gt;" style="rounded=0;whiteSpace=wrap;html=1;fontSize=14;fontStyle=1;fillColor=#1ba1e2;strokeColor=#006EAF;fontColor=#ffffff;align=left;" parent="63" vertex="1">
                    <mxGeometry x="218" y="127" width="140" height="110" as="geometry"/>
                </mxCell>
                <mxCell id="15" value="Local&amp;nbsp;&lt;div&gt;Package Service&lt;/div&gt;" style="whiteSpace=wrap;html=1;fontSize=14;rounded=0;fontStyle=1;fillColor=#f0a30a;fontColor=#000000;strokeColor=#BD7000;" parent="63" vertex="1">
                    <mxGeometry x="18" y="167" width="160" height="60" as="geometry"/>
                </mxCell>
                <mxCell id="27" value="Git hub Copilot&lt;div&gt;AI Assistant&lt;/div&gt;" style="whiteSpace=wrap;html=1;fontSize=14;rounded=0;fontStyle=1;fillColor=#f0a30a;fontColor=#000000;strokeColor=#BD7000;" parent="63" vertex="1">
                    <mxGeometry x="223" y="267" width="130" height="60" as="geometry"/>
                </mxCell>
                <mxCell id="29" value="&lt;font face=&quot;Arial&quot; style=&quot;font-size: 10px;&quot;&gt;Make Local Nuget Folder that will be used as nuget source for all the up comming projects with out internet.&lt;/font&gt;" style="whiteSpace=wrap;html=1;fontSize=14;rounded=0;fontStyle=1;fillColor=#e3c800;fontColor=#000000;strokeColor=#B09500;align=left;" parent="63" vertex="1">
                    <mxGeometry x="18" y="37" width="160" height="70" as="geometry"/>
                </mxCell>
                <mxCell id="WfxBs5Kwzvp5YL8QPZB_-63" value="AI Session" style="swimlane;startSize=30;fontSize=16;fillColor=#f5f5f5;strokeColor=#666666;fontColor=#333333;fontFamily=Arial;" parent="1" vertex="1">
                    <mxGeometry x="-845" y="-750" width="835" height="540" as="geometry">
                        <mxRectangle x="-660" y="310" width="170" height="30" as="alternateBounds"/>
                    </mxGeometry>
                </mxCell>
                <mxCell id="dkA9ViAzlWq_J79oZiWl-64" value="&lt;h1 style=&quot;margin-top: 0px;&quot;&gt;&lt;span style=&quot;color: rgb(63, 63, 63); font-family: Arial;&quot;&gt;&lt;font style=&quot;font-size: 10px;&quot;&gt;Prompts for Developers&lt;/font&gt;&lt;/span&gt;&lt;/h1&gt;&lt;ol style=&quot;direction: ltr; unicode-bidi: embed; margin-top: 0in; margin-bottom: 0in; font-family: Arial; font-weight: bold;&quot; type=&quot;1&quot;&gt;&lt;li style=&quot;margin-top: 0px; margin-bottom: 0px; vertical-align: middle;&quot; lang=&quot;en-GB&quot; value=&quot;1&quot;&gt;&lt;font style=&quot;font-size: 8px;&quot;&gt;Quick solution and learn syntax.&lt;/font&gt;&lt;/li&gt;&lt;/ol&gt;&lt;p style=&quot;margin: 0in 0in 0in 0.375in; font-family: Arial;&quot; lang=&quot;en-GB&quot;&gt;&lt;font style=&quot;font-size: 8px;&quot;&gt;Write a C# function that scrap the product list from amazon.com.&lt;/font&gt;&lt;/p&gt;&lt;ol style=&quot;direction: ltr; unicode-bidi: embed; margin-top: 0in; margin-bottom: 0in; font-family: Arial; font-weight: bold;&quot; type=&quot;1&quot;&gt;&lt;li style=&quot;margin-top: 0px; margin-bottom: 0px; vertical-align: middle;&quot; lang=&quot;en-GB&quot; value=&quot;2&quot;&gt;&lt;font style=&quot;font-size: 8px;&quot;&gt;Explain the fallowing code like I am 5 years old.&lt;/font&gt;&lt;/li&gt;&lt;/ol&gt;&lt;p style=&quot;margin: 0in 0in 0in 0.375in; font-family: Arial;&quot; lang=&quot;en-GB&quot;&gt;&lt;font style=&quot;font-size: 8px;&quot;&gt;It will help you to get bater understanding for existing code.&lt;/font&gt;&lt;/p&gt;&lt;ol style=&quot;direction: ltr; unicode-bidi: embed; margin-top: 0in; margin-bottom: 0in; font-family: Arial; font-weight: bold;&quot; type=&quot;1&quot;&gt;&lt;li style=&quot;margin-top: 0px; margin-bottom: 0px; vertical-align: middle;&quot; lang=&quot;en-GB&quot; value=&quot;3&quot;&gt;&lt;font style=&quot;font-size: 8px;&quot;&gt;Refactor to be more efficient. Use this to polish your code&lt;/font&gt;&lt;/li&gt;&lt;/ol&gt;&lt;p style=&quot;margin: 0in 0in 0in 0.375in; font-family: Arial;&quot; lang=&quot;en-GB&quot;&gt;&lt;font style=&quot;font-size: 8px;&quot;&gt;Refactor this code to use best practices and reduce time complexity.&lt;/font&gt;&lt;/p&gt;&lt;ol style=&quot;direction: ltr; unicode-bidi: embed; margin-top: 0in; margin-bottom: 0in; font-family: Arial; font-weight: bold;&quot; type=&quot;1&quot;&gt;&lt;li style=&quot;margin-top: 0px; margin-bottom: 0px; vertical-align: middle;&quot; lang=&quot;en-GB&quot; value=&quot;4&quot;&gt;&lt;font style=&quot;font-size: 8px;&quot;&gt;Unit test Generator.&lt;/font&gt;&lt;/li&gt;&lt;/ol&gt;&lt;p style=&quot;margin: 0in 0in 0in 0.375in; font-family: Arial;&quot; lang=&quot;en-GB&quot;&gt;&lt;font style=&quot;font-size: 8px;&quot;&gt;Write jest test cases for this component or project etc.&lt;/font&gt;&lt;/p&gt;&lt;ol style=&quot;direction: ltr; unicode-bidi: embed; margin-top: 0in; margin-bottom: 0in; font-family: Arial; font-weight: bold;&quot; type=&quot;1&quot;&gt;&lt;li style=&quot;margin-top: 0px; margin-bottom: 0px; vertical-align: middle;&quot; lang=&quot;en-GB&quot; value=&quot;5&quot;&gt;&lt;font style=&quot;font-size: 8px;&quot;&gt;Inline Documentation.&lt;/font&gt;&lt;/li&gt;&lt;/ol&gt;&lt;p style=&quot;margin: 0in 0in 0in 0.375in; font-family: Arial;&quot; lang=&quot;en-GB&quot;&gt;&lt;font style=&quot;font-size: 8px;&quot;&gt;Add inline documentation to this function.&lt;/font&gt;&lt;/p&gt;&lt;ol style=&quot;direction: ltr; unicode-bidi: embed; margin-top: 0in; margin-bottom: 0in; font-family: Arial; font-weight: bold;&quot; type=&quot;1&quot;&gt;&lt;li style=&quot;margin-top: 0px; margin-bottom: 0px; vertical-align: middle;&quot; lang=&quot;en-GB&quot; value=&quot;6&quot;&gt;&lt;font style=&quot;font-size: 8px;&quot;&gt;Code Translation.&lt;/font&gt;&lt;/li&gt;&lt;/ol&gt;&lt;p style=&quot;margin: 0in 0in 0in 0.375in; font-family: Arial;&quot; lang=&quot;en-GB&quot;&gt;&lt;font style=&quot;font-size: 8px;&quot;&gt;Convert this function Java code into the Csharp.&lt;/font&gt;&lt;/p&gt;&lt;ol style=&quot;direction: ltr; unicode-bidi: embed; margin-top: 0in; margin-bottom: 0in; font-family: Arial; font-weight: bold;&quot; type=&quot;1&quot;&gt;&lt;li style=&quot;margin-top: 0px; margin-bottom: 0px; vertical-align: middle;&quot; lang=&quot;en-GB&quot; value=&quot;7&quot;&gt;&lt;font style=&quot;font-size: 8px;&quot;&gt;Code Review&lt;/font&gt;&lt;/li&gt;&lt;/ol&gt;&lt;p style=&quot;margin: 0in 0in 0in 0.375in; font-family: Arial;&quot; lang=&quot;en-GB&quot;&gt;&lt;font style=&quot;font-size: 8px;&quot;&gt;Act as the senior developer and review this code&lt;span style=&quot;font-weight: bold;&quot;&gt;.&lt;/span&gt;&amp;nbsp;Point out any issue or improvements.&lt;/font&gt;&lt;/p&gt;&lt;ol style=&quot;direction: ltr; unicode-bidi: embed; margin-top: 0in; margin-bottom: 0in; font-family: Arial;&quot; type=&quot;1&quot;&gt;&lt;li style=&quot;margin-top: 0px; margin-bottom: 0px; vertical-align: middle;&quot; lang=&quot;en-GB&quot; value=&quot;8&quot;&gt;&lt;b&gt;&lt;font style=&quot;font-size: 8px;&quot;&gt;API Docs get, clearer documentation with less effort.&lt;/font&gt;&lt;/b&gt;&lt;/li&gt;&lt;/ol&gt;&lt;p style=&quot;margin: 0in 0in 0in 0.375in; font-family: Arial;&quot; lang=&quot;en-GB&quot;&gt;&lt;font style=&quot;font-size: 8px;&quot;&gt;Generate full Swagger Documentation from this &quot;Express.cs route&quot;&lt;/font&gt;&lt;/p&gt;&lt;ol style=&quot;direction: ltr; unicode-bidi: embed; margin-top: 0in; margin-bottom: 0in; font-family: Arial; font-weight: bold;&quot; type=&quot;1&quot;&gt;&lt;li style=&quot;margin-top: 0px; margin-bottom: 0px; vertical-align: middle;&quot; lang=&quot;en-GB&quot; value=&quot;9&quot;&gt;&lt;font style=&quot;font-size: 8px;&quot;&gt;UI Component Builder.&lt;/font&gt;&lt;/li&gt;&lt;/ol&gt;&lt;p style=&quot;margin: 0in 0in 0in 0.375in; font-family: Arial;&quot; lang=&quot;en-GB&quot;&gt;&lt;font style=&quot;font-size: 8px;&quot;&gt;Build a Bootstrap Nave with search, dark mode toggle, and mobile menu.&lt;/font&gt;&lt;/p&gt;&lt;ol style=&quot;direction: ltr; unicode-bidi: embed; margin-top: 0in; margin-bottom: 0in; font-family: Arial; font-weight: bold;&quot; type=&quot;1&quot;&gt;&lt;li style=&quot;margin-top: 0px; margin-bottom: 0px; vertical-align: middle;&quot; lang=&quot;en-GB&quot; value=&quot;10&quot;&gt;&lt;font style=&quot;font-size: 8px;&quot;&gt;Summarize.&lt;/font&gt;&lt;/li&gt;&lt;/ol&gt;" style="text;html=1;whiteSpace=wrap;overflow=hidden;rounded=0;fillColor=#fff2cc;strokeColor=#d6b656;" vertex="1" parent="WfxBs5Kwzvp5YL8QPZB_-63">
                    <mxGeometry x="467" y="40" width="365" height="390" as="geometry"/>
                </mxCell>
            </root>
        </mxGraphModel>
    </diagram>
    <diagram id="ls3iE5OVdpN62FmXAfBB" name="Page-3">
        <mxGraphModel dx="1386" dy="669" grid="1" gridSize="10" guides="1" tooltips="1" connect="1" arrows="1" fold="1" page="1" pageScale="1" pageWidth="850" pageHeight="1100" math="0" shadow="0">
            <root>
                <mxCell id="0"/>
                <mxCell id="1" parent="0"/>
            </root>
        </mxGraphModel>
    </diagram>
    <diagram id="g6JXq_My-X_aeHp3c6cc" name="Components">
        <mxGraphModel dx="2236" dy="1769" grid="1" gridSize="10" guides="1" tooltips="1" connect="1" arrows="1" fold="1" page="1" pageScale="1" pageWidth="850" pageHeight="1100" math="0" shadow="0">
            <root>
                <mxCell id="0"/>
                <mxCell id="1" parent="0"/>
                <mxCell id="KBmKEuS-98N_0Dt0dRHo-1" value="Title" style="text;strokeColor=none;fillColor=none;html=1;fontSize=24;fontStyle=1;verticalAlign=middle;align=center;" parent="1" vertex="1">
                    <mxGeometry x="-475" y="-415" width="100" height="40" as="geometry"/>
                </mxCell>
                <mxCell id="KBmKEuS-98N_0Dt0dRHo-2" value="" style="rounded=0;whiteSpace=wrap;html=1;" parent="1" vertex="1">
                    <mxGeometry x="-720" y="-1050" width="120" height="60" as="geometry"/>
                </mxCell>
                <mxCell id="KBmKEuS-98N_0Dt0dRHo-3" value="Container" style="swimlane;startSize=30;fontSize=16;fillColor=#f5f5f5;strokeColor=#666666;fontColor=#333333;" parent="1" vertex="1">
                    <mxGeometry x="-580" y="-1050" width="200" height="80" as="geometry">
                        <mxRectangle x="-660" y="310" width="170" height="30" as="alternateBounds"/>
                    </mxGeometry>
                </mxCell>
                <mxCell id="KBmKEuS-98N_0Dt0dRHo-5" value="Tree Container" style="swimlane;startSize=30;horizontal=1;containerType=tree;fillColor=#d80073;strokeColor=#A50040;fontSize=16;fontColor=#ffffff;" parent="1" vertex="1">
                    <mxGeometry x="-820" y="-930" width="400" height="220" as="geometry"/>
                </mxCell>
                <mxCell id="KBmKEuS-98N_0Dt0dRHo-6" value="" style="edgeStyle=elbowEdgeStyle;elbow=vertical;sourcePerimeterSpacing=0;targetPerimeterSpacing=0;startArrow=none;endArrow=none;rounded=0;curved=0;fillColor=#dae8fc;strokeColor=#3399FF;strokeWidth=3;" parent="KBmKEuS-98N_0Dt0dRHo-5" source="KBmKEuS-98N_0Dt0dRHo-7" target="KBmKEuS-98N_0Dt0dRHo-8" edge="1">
                    <mxGeometry relative="1" as="geometry"/>
                </mxCell>
                <mxCell id="KBmKEuS-98N_0Dt0dRHo-7" value="Parent" style="whiteSpace=wrap;html=1;treeFolding=1;treeMoving=1;newEdgeStyle={&quot;edgeStyle&quot;:&quot;elbowEdgeStyle&quot;,&quot;startArrow&quot;:&quot;none&quot;,&quot;endArrow&quot;:&quot;none&quot;};rotation=0;strokeWidth=3;strokeColor=#A50040;fillColor=#d80073;fontSize=14;fontStyle=3;fontColor=#ffffff;" parent="KBmKEuS-98N_0Dt0dRHo-5" vertex="1">
                    <mxGeometry x="30" y="80" width="120" height="40" as="geometry"/>
                </mxCell>
                <mxCell id="KBmKEuS-98N_0Dt0dRHo-8" value="C1" style="whiteSpace=wrap;html=1;treeFolding=1;treeMoving=1;newEdgeStyle={&quot;edgeStyle&quot;:&quot;elbowEdgeStyle&quot;,&quot;startArrow&quot;:&quot;none&quot;,&quot;endArrow&quot;:&quot;none&quot;};fillColor=#1ba1e2;strokeColor=#006EAF;fontStyle=1;fontColor=#ffffff;" parent="KBmKEuS-98N_0Dt0dRHo-5" vertex="1">
                    <mxGeometry x="220" y="40" width="120" height="40" as="geometry"/>
                </mxCell>
                <mxCell id="KBmKEuS-98N_0Dt0dRHo-9" value="" style="edgeStyle=elbowEdgeStyle;elbow=vertical;sourcePerimeterSpacing=0;targetPerimeterSpacing=0;startArrow=none;endArrow=none;rounded=0;curved=0;fillColor=#f8cecc;strokeColor=#66B2FF;strokeWidth=3;" parent="KBmKEuS-98N_0Dt0dRHo-5" source="KBmKEuS-98N_0Dt0dRHo-7" target="KBmKEuS-98N_0Dt0dRHo-10" edge="1">
                    <mxGeometry relative="1" as="geometry">
                        <mxPoint x="-370" y="-620" as="sourcePoint"/>
                    </mxGeometry>
                </mxCell>
                <mxCell id="KBmKEuS-98N_0Dt0dRHo-10" value="C2" style="whiteSpace=wrap;html=1;treeFolding=1;treeMoving=1;newEdgeStyle={&quot;edgeStyle&quot;:&quot;elbowEdgeStyle&quot;,&quot;startArrow&quot;:&quot;none&quot;,&quot;endArrow&quot;:&quot;none&quot;};fillColor=#1ba1e2;strokeColor=#006EAF;fontStyle=1;fontColor=#ffffff;" parent="KBmKEuS-98N_0Dt0dRHo-5" vertex="1">
                    <mxGeometry x="220" y="120" width="120" height="40" as="geometry"/>
                </mxCell>
                <mxCell id="KBmKEuS-98N_0Dt0dRHo-11" value="&lt;font style=&quot;font-size: 16px;&quot;&gt;Layer Container&lt;/font&gt;" style="swimlane;childLayout=stackLayout;resizeParent=1;resizeParentMax=0;horizontal=0;startSize=30;horizontalStack=0;html=1;fontSize=14;fontStyle=1;fillColor=#f5f5f5;strokeColor=#666666;fontColor=#333333;rotation=0;" parent="1" vertex="1">
                    <mxGeometry x="-405" y="-930" width="390" height="120" as="geometry">
                        <mxRectangle x="-680" y="-1660" width="40" height="60" as="alternateBounds"/>
                    </mxGeometry>
                </mxCell>
                <mxCell id="KBmKEuS-98N_0Dt0dRHo-12" value="&lt;font style=&quot;font-size: 14px;&quot;&gt;Layer 1&lt;/font&gt;" style="swimlane;startSize=20;horizontal=0;html=1;fillColor=#d5e8d4;strokeColor=#82b366;rotation=0;" parent="KBmKEuS-98N_0Dt0dRHo-11" vertex="1" collapsed="1">
                    <mxGeometry x="30" width="360" height="30" as="geometry">
                        <mxRectangle x="30" width="450" height="120" as="alternateBounds"/>
                    </mxGeometry>
                </mxCell>
                <mxCell id="KBmKEuS-98N_0Dt0dRHo-13" value="Layer 2" style="swimlane;startSize=20;horizontal=0;html=1;fillColor=#f8cecc;strokeColor=#b85450;fontSize=14;rotation=0;" parent="KBmKEuS-98N_0Dt0dRHo-11" vertex="1" collapsed="1">
                    <mxGeometry x="30" y="30" width="360" height="30" as="geometry">
                        <mxRectangle x="30" y="30" width="450" height="120" as="alternateBounds"/>
                    </mxGeometry>
                </mxCell>
                <mxCell id="KBmKEuS-98N_0Dt0dRHo-14" value="Layer 3" style="swimlane;startSize=20;horizontal=0;html=1;fillColor=#e1d5e7;strokeColor=#9673a6;fontSize=14;rotation=0;" parent="KBmKEuS-98N_0Dt0dRHo-11" vertex="1" collapsed="1">
                    <mxGeometry x="30" y="60" width="360" height="30" as="geometry">
                        <mxRectangle x="30" y="60" width="450" height="120" as="alternateBounds"/>
                    </mxGeometry>
                </mxCell>
                <mxCell id="KBmKEuS-98N_0Dt0dRHo-15" value="Layer 4" style="swimlane;startSize=20;horizontal=0;html=1;fillColor=#fff2cc;strokeColor=#d6b656;fontSize=14;rotation=0;" parent="KBmKEuS-98N_0Dt0dRHo-11" vertex="1" collapsed="1">
                    <mxGeometry x="30" y="90" width="360" height="30" as="geometry">
                        <mxRectangle x="30" y="90" width="360" height="120" as="alternateBounds"/>
                    </mxGeometry>
                </mxCell>
                <mxCell id="KBmKEuS-98N_0Dt0dRHo-16" value="Pool" style="swimlane;childLayout=stackLayout;resizeParent=1;resizeParentMax=0;startSize=30;html=1;fontSize=16;fontFamily=Helvetica;fillColor=#f5f5f5;fontColor=#333333;strokeColor=#666666;" parent="1" vertex="1">
                    <mxGeometry x="-400" y="-800" width="360" height="170" as="geometry"/>
                </mxCell>
                <mxCell id="KBmKEuS-98N_0Dt0dRHo-17" value="Lane 1" style="swimlane;startSize=20;html=1;fillColor=#dae8fc;strokeColor=#6c8ebf;" parent="KBmKEuS-98N_0Dt0dRHo-16" vertex="1">
                    <mxGeometry y="30" width="120" height="140" as="geometry"/>
                </mxCell>
                <mxCell id="KBmKEuS-98N_0Dt0dRHo-18" value="Lane 2" style="swimlane;startSize=20;html=1;fillColor=#d5e8d4;strokeColor=#82b366;" parent="KBmKEuS-98N_0Dt0dRHo-16" vertex="1">
                    <mxGeometry x="120" y="30" width="120" height="140" as="geometry"/>
                </mxCell>
                <mxCell id="KBmKEuS-98N_0Dt0dRHo-19" value="Lane 3" style="swimlane;startSize=20;html=1;fillColor=#f8cecc;strokeColor=#b85450;" parent="KBmKEuS-98N_0Dt0dRHo-16" vertex="1">
                    <mxGeometry x="240" y="30" width="120" height="140" as="geometry"/>
                </mxCell>
                <mxCell id="KBmKEuS-98N_0Dt0dRHo-20" value="Text" style="whiteSpace=wrap;html=1;shape=mxgraph.basic.roundRectCallout;dx=30;dy=15;size=5;boundedLbl=1;fillOpacity=100;" parent="1" vertex="1">
                    <mxGeometry x="-210" y="-1050" width="120" height="70" as="geometry"/>
                </mxCell>
                <mxCell id="KBmKEuS-98N_0Dt0dRHo-21" value="" style="shape=flexArrow;endArrow=classic;startArrow=classic;html=1;fillColor=#d80073;strokeColor=#A50040;" parent="1" edge="1">
                    <mxGeometry width="100" height="100" relative="1" as="geometry">
                        <mxPoint x="-69.99999999999977" y="-975" as="sourcePoint"/>
                        <mxPoint x="-19.999999999999773" y="-1045" as="targetPoint"/>
                    </mxGeometry>
                </mxCell>
                <mxCell id="KBmKEuS-98N_0Dt0dRHo-22" value="" style="verticalLabelPosition=bottom;verticalAlign=top;html=1;shape=mxgraph.basic.tick;fillColor=#008a00;strokeColor=#005700;fontColor=#ffffff;" parent="1" vertex="1">
                    <mxGeometry x="-830" y="-990" width="40" height="40" as="geometry"/>
                </mxCell>
                <mxCell id="KBmKEuS-98N_0Dt0dRHo-23" value="" style="verticalLabelPosition=bottom;verticalAlign=top;html=1;shape=mxgraph.basic.x;fillColor=#d80073;fontColor=#ffffff;strokeColor=#A50040;" parent="1" vertex="1">
                    <mxGeometry x="-770" y="-980" width="40" height="40" as="geometry"/>
                </mxCell>
                <mxCell id="KBmKEuS-98N_0Dt0dRHo-24" value="" style="endArrow=classic;startArrow=classic;html=1;" parent="1" edge="1">
                    <mxGeometry width="50" height="50" relative="1" as="geometry">
                        <mxPoint x="-139.99999999999977" y="-940" as="sourcePoint"/>
                        <mxPoint x="-89.99999999999977" y="-990" as="targetPoint"/>
                    </mxGeometry>
                </mxCell>
                <mxCell id="KBmKEuS-98N_0Dt0dRHo-25" value="" style="curved=1;endArrow=classic;html=1;fillColor=#1ba1e2;strokeColor=#006EAF;strokeWidth=5;" parent="1" edge="1">
                    <mxGeometry width="50" height="50" relative="1" as="geometry">
                        <mxPoint x="-829.9999999999998" y="-1010" as="sourcePoint"/>
                        <mxPoint x="-779.9999999999998" y="-1060" as="targetPoint"/>
                        <Array as="points">
                            <mxPoint x="-779.9999999999998" y="-1010"/>
                            <mxPoint x="-829.9999999999998" y="-1060"/>
                        </Array>
                    </mxGeometry>
                </mxCell>
                <mxCell id="KBmKEuS-98N_0Dt0dRHo-26" value="" style="shape=parallelogram;perimeter=parallelogramPerimeter;whiteSpace=wrap;html=1;fixedSize=1;fillColor=#f8cecc;strokeColor=#b85450;" parent="1" vertex="1">
                    <mxGeometry x="-829.9999999999998" y="-700" width="120" height="60" as="geometry"/>
                </mxCell>
                <mxCell id="KBmKEuS-98N_0Dt0dRHo-27" value="&lt;b&gt;DataBase&lt;/b&gt;" style="shape=cylinder3;whiteSpace=wrap;html=1;boundedLbl=1;backgroundOutline=1;size=15;fillColor=#f8cecc;strokeColor=#b85450;" parent="1" vertex="1">
                    <mxGeometry x="-689.9999999999998" y="-700" width="80" height="100" as="geometry"/>
                </mxCell>
                <mxCell id="KBmKEuS-98N_0Dt0dRHo-28" value="Actor" style="shape=umlActor;verticalLabelPosition=bottom;verticalAlign=top;html=1;outlineConnect=0;fillColor=#d80073;fontColor=#ffffff;strokeColor=#A50040;strokeWidth=4;" parent="1" vertex="1">
                    <mxGeometry x="-580" y="-690" width="30" height="60" as="geometry"/>
                </mxCell>
                <mxCell id="KBmKEuS-98N_0Dt0dRHo-29" value="" style="ellipse;shape=cloud;whiteSpace=wrap;html=1;fillColor=#1ba1e2;fontColor=#ffffff;strokeColor=#006EAF;" parent="1" vertex="1">
                    <mxGeometry x="-835" y="-500" width="120" height="80" as="geometry"/>
                </mxCell>
                <mxCell id="KBmKEuS-98N_0Dt0dRHo-30" value="" style="shape=card;whiteSpace=wrap;html=1;fillColor=#e1d5e7;strokeColor=#9673a6;" parent="1" vertex="1">
                    <mxGeometry x="-830" y="-610" width="80" height="100" as="geometry"/>
                </mxCell>
                <mxCell id="KBmKEuS-98N_0Dt0dRHo-31" value="Peragraph" style="text;spacingTop=-5;whiteSpace=wrap;html=1;align=left;fontSize=12;fontFamily=Helvetica;fillColor=#dae8fc;strokeColor=#6c8ebf;" parent="1" vertex="1">
                    <mxGeometry x="-450" y="-450" width="290" height="30" as="geometry"/>
                </mxCell>
                <mxCell id="KBmKEuS-98N_0Dt0dRHo-32" value="" style="shape=table;html=1;whiteSpace=wrap;startSize=0;container=1;collapsible=0;childLayout=tableLayout;strokeWidth=2;" parent="1" vertex="1">
                    <mxGeometry x="-450" y="-600" width="270" height="140" as="geometry"/>
                </mxCell>
                <mxCell id="KBmKEuS-98N_0Dt0dRHo-33" value="" style="shape=tableRow;horizontal=0;startSize=0;swimlaneHead=0;swimlaneBody=0;top=0;left=0;bottom=0;right=0;collapsible=0;dropTarget=0;fillColor=none;points=[[0,0.5],[1,0.5]];portConstraint=eastwest;" parent="KBmKEuS-98N_0Dt0dRHo-32" vertex="1">
                    <mxGeometry width="270" height="32" as="geometry"/>
                </mxCell>
                <mxCell id="KBmKEuS-98N_0Dt0dRHo-34" value="Header 1" style="shape=partialRectangle;html=1;whiteSpace=wrap;connectable=0;fillColor=#f8cecc;top=0;left=0;bottom=0;right=0;overflow=hidden;fontStyle=1;strokeColor=#b85450;" parent="KBmKEuS-98N_0Dt0dRHo-33" vertex="1">
                    <mxGeometry width="90" height="32" as="geometry">
                        <mxRectangle width="90" height="32" as="alternateBounds"/>
                    </mxGeometry>
                </mxCell>
                <mxCell id="KBmKEuS-98N_0Dt0dRHo-35" value="Header 2" style="shape=partialRectangle;html=1;whiteSpace=wrap;connectable=0;fillColor=#f8cecc;top=0;left=0;bottom=0;right=0;overflow=hidden;fontStyle=1;strokeColor=#b85450;" parent="KBmKEuS-98N_0Dt0dRHo-33" vertex="1">
                    <mxGeometry x="90" width="90" height="32" as="geometry">
                        <mxRectangle width="90" height="32" as="alternateBounds"/>
                    </mxGeometry>
                </mxCell>
                <mxCell id="KBmKEuS-98N_0Dt0dRHo-36" value="asdfsdf" style="shape=partialRectangle;html=1;whiteSpace=wrap;connectable=0;fillColor=#f8cecc;top=0;left=0;bottom=0;right=0;overflow=hidden;fontStyle=1;strokeColor=#b85450;" parent="KBmKEuS-98N_0Dt0dRHo-33" vertex="1">
                    <mxGeometry x="180" width="90" height="32" as="geometry">
                        <mxRectangle width="90" height="32" as="alternateBounds"/>
                    </mxGeometry>
                </mxCell>
                <mxCell id="KBmKEuS-98N_0Dt0dRHo-37" value="" style="shape=tableRow;horizontal=0;startSize=0;swimlaneHead=0;swimlaneBody=0;top=0;left=0;bottom=0;right=0;collapsible=0;dropTarget=0;fillColor=none;points=[[0,0.5],[1,0.5]];portConstraint=eastwest;" parent="KBmKEuS-98N_0Dt0dRHo-32" vertex="1">
                    <mxGeometry y="32" width="270" height="36" as="geometry"/>
                </mxCell>
                <mxCell id="KBmKEuS-98N_0Dt0dRHo-38" value="row 1, cell 1" style="shape=partialRectangle;html=1;whiteSpace=wrap;connectable=0;fillColor=none;top=0;left=0;bottom=0;right=0;overflow=hidden;" parent="KBmKEuS-98N_0Dt0dRHo-37" vertex="1">
                    <mxGeometry width="90" height="36" as="geometry">
                        <mxRectangle width="90" height="36" as="alternateBounds"/>
                    </mxGeometry>
                </mxCell>
                <mxCell id="KBmKEuS-98N_0Dt0dRHo-39" value="row 1, cell 2" style="shape=partialRectangle;html=1;whiteSpace=wrap;connectable=0;fillColor=none;top=0;left=0;bottom=0;right=0;overflow=hidden;" parent="KBmKEuS-98N_0Dt0dRHo-37" vertex="1">
                    <mxGeometry x="90" width="90" height="36" as="geometry">
                        <mxRectangle width="90" height="36" as="alternateBounds"/>
                    </mxGeometry>
                </mxCell>
                <mxCell id="KBmKEuS-98N_0Dt0dRHo-40" style="shape=partialRectangle;html=1;whiteSpace=wrap;connectable=0;fillColor=none;top=0;left=0;bottom=0;right=0;overflow=hidden;" parent="KBmKEuS-98N_0Dt0dRHo-37" vertex="1">
                    <mxGeometry x="180" width="90" height="36" as="geometry">
                        <mxRectangle width="90" height="36" as="alternateBounds"/>
                    </mxGeometry>
                </mxCell>
                <mxCell id="KBmKEuS-98N_0Dt0dRHo-41" value="" style="shape=tableRow;horizontal=0;startSize=0;swimlaneHead=0;swimlaneBody=0;top=0;left=0;bottom=0;right=0;collapsible=0;dropTarget=0;fillColor=none;points=[[0,0.5],[1,0.5]];portConstraint=eastwest;" parent="KBmKEuS-98N_0Dt0dRHo-32" vertex="1">
                    <mxGeometry y="68" width="270" height="35" as="geometry"/>
                </mxCell>
                <mxCell id="KBmKEuS-98N_0Dt0dRHo-42" value="row 2, cell 1" style="shape=partialRectangle;html=1;whiteSpace=wrap;connectable=0;fillColor=none;top=0;left=0;bottom=0;right=0;overflow=hidden;" parent="KBmKEuS-98N_0Dt0dRHo-41" vertex="1">
                    <mxGeometry width="90" height="35" as="geometry">
                        <mxRectangle width="90" height="35" as="alternateBounds"/>
                    </mxGeometry>
                </mxCell>
                <mxCell id="KBmKEuS-98N_0Dt0dRHo-43" value="row 2, cell 2" style="shape=partialRectangle;html=1;whiteSpace=wrap;connectable=0;fillColor=none;top=0;left=0;bottom=0;right=0;overflow=hidden;" parent="KBmKEuS-98N_0Dt0dRHo-41" vertex="1">
                    <mxGeometry x="90" width="90" height="35" as="geometry">
                        <mxRectangle width="90" height="35" as="alternateBounds"/>
                    </mxGeometry>
                </mxCell>
                <mxCell id="KBmKEuS-98N_0Dt0dRHo-44" style="shape=partialRectangle;html=1;whiteSpace=wrap;connectable=0;fillColor=none;top=0;left=0;bottom=0;right=0;overflow=hidden;" parent="KBmKEuS-98N_0Dt0dRHo-41" vertex="1">
                    <mxGeometry x="180" width="90" height="35" as="geometry">
                        <mxRectangle width="90" height="35" as="alternateBounds"/>
                    </mxGeometry>
                </mxCell>
                <mxCell id="KBmKEuS-98N_0Dt0dRHo-45" value="" style="shape=tableRow;horizontal=0;startSize=0;swimlaneHead=0;swimlaneBody=0;top=0;left=0;bottom=0;right=0;collapsible=0;dropTarget=0;fillColor=none;points=[[0,0.5],[1,0.5]];portConstraint=eastwest;" parent="KBmKEuS-98N_0Dt0dRHo-32" vertex="1">
                    <mxGeometry y="103" width="270" height="37" as="geometry"/>
                </mxCell>
                <mxCell id="KBmKEuS-98N_0Dt0dRHo-46" value="Header 1" style="shape=partialRectangle;html=1;whiteSpace=wrap;connectable=0;fillColor=none;top=0;left=0;bottom=0;right=0;overflow=hidden;fontStyle=1" parent="KBmKEuS-98N_0Dt0dRHo-45" vertex="1">
                    <mxGeometry width="90" height="37" as="geometry">
                        <mxRectangle width="90" height="37" as="alternateBounds"/>
                    </mxGeometry>
                </mxCell>
                <mxCell id="KBmKEuS-98N_0Dt0dRHo-47" value="Header 2" style="shape=partialRectangle;html=1;whiteSpace=wrap;connectable=0;fillColor=none;top=0;left=0;bottom=0;right=0;overflow=hidden;fontStyle=1" parent="KBmKEuS-98N_0Dt0dRHo-45" vertex="1">
                    <mxGeometry x="90" width="90" height="37" as="geometry">
                        <mxRectangle width="90" height="37" as="alternateBounds"/>
                    </mxGeometry>
                </mxCell>
                <mxCell id="KBmKEuS-98N_0Dt0dRHo-48" style="shape=partialRectangle;html=1;whiteSpace=wrap;connectable=0;fillColor=none;top=0;left=0;bottom=0;right=0;overflow=hidden;fontStyle=1" parent="KBmKEuS-98N_0Dt0dRHo-45" vertex="1">
                    <mxGeometry x="180" width="90" height="37" as="geometry">
                        <mxRectangle width="90" height="37" as="alternateBounds"/>
                    </mxGeometry>
                </mxCell>
                <mxCell id="KBmKEuS-98N_0Dt0dRHo-49" value="&lt;font style=&quot;font-size: 14px; color: light-dark(rgb(255, 255, 255), rgb(237, 237, 237));&quot;&gt;Interface&lt;/font&gt;" style="swimlane;fontStyle=1;align=center;verticalAlign=top;childLayout=stackLayout;horizontal=1;startSize=26;horizontalStack=0;resizeParent=1;resizeParentMax=0;resizeLast=0;collapsible=1;marginBottom=0;whiteSpace=wrap;html=1;fillColor=#1EB5BD;fontColor=#ffffff;strokeColor=#1EB5BD;strokeWidth=4;" parent="1" vertex="1">
                    <mxGeometry x="-715" y="-587" width="160" height="70" as="geometry">
                        <mxRectangle x="-460" y="-600" width="100" height="30" as="alternateBounds"/>
                    </mxGeometry>
                </mxCell>
                <mxCell id="KBmKEuS-98N_0Dt0dRHo-50" value="public void test (int,int);&lt;div&gt;&lt;br&gt;&lt;/div&gt;" style="text;strokeColor=#1EB5BD;fillColor=#78CDD1;align=left;verticalAlign=top;spacingLeft=4;spacingRight=4;overflow=hidden;rotatable=0;points=[[0,0.5],[1,0.5]];portConstraint=eastwest;whiteSpace=wrap;html=1;fillOpacity=70;" parent="KBmKEuS-98N_0Dt0dRHo-49" vertex="1">
                    <mxGeometry y="26" width="160" height="44" as="geometry"/>
                </mxCell>
                <mxCell id="v0vwl3DpcYXHaGmy_GOJ-1" value="Note Line 1&#xa;Note Line 2&#xa;Note Line 3" style="strokeWidth=1;shadow=0;dashed=0;align=center;html=1;shape=mxgraph.mockup.text.stickyNote2;fontColor=#666666;mainText=;fontSize=17;whiteSpace=wrap;fillColor=#ffffcc;strokeColor=#F62E00;" parent="1" vertex="1">
                    <mxGeometry x="-150" y="-410" width="140" height="130" as="geometry"/>
                </mxCell>
                <mxCell id="8-nbn5OPSdqifUeAZeti-1" value="" style="fillColor=#7CCC6C;strokeColor=none;whiteSpace=wrap;html=1;" parent="1" vertex="1">
                    <mxGeometry x="-780" y="-410" width="50" height="50" as="geometry"/>
                </mxCell>
                <mxCell id="8-nbn5OPSdqifUeAZeti-2" value="" style="fillColor=#009271;strokeColor=none;whiteSpace=wrap;html=1;" parent="1" vertex="1">
                    <mxGeometry x="-840" y="-410" width="50" height="50" as="geometry"/>
                </mxCell>
                <mxCell id="8-nbn5OPSdqifUeAZeti-3" value="" style="fillColor=#FFC82E;strokeColor=none;whiteSpace=wrap;html=1;" parent="1" vertex="1">
                    <mxGeometry x="-540" y="-350" width="50" height="50" as="geometry"/>
                </mxCell>
                <mxCell id="8-nbn5OPSdqifUeAZeti-4" value="" style="fillColor=#FFA12D;strokeColor=none;whiteSpace=wrap;html=1;" parent="1" vertex="1">
                    <mxGeometry x="-540" y="-410" width="50" height="50" as="geometry"/>
                </mxCell>
                <mxCell id="8-nbn5OPSdqifUeAZeti-5" value="" style="fillColor=#F1446F;strokeColor=none;whiteSpace=wrap;html=1;" parent="1" vertex="1">
                    <mxGeometry x="-540" y="-470" width="50" height="50" as="geometry"/>
                </mxCell>
                <mxCell id="8-nbn5OPSdqifUeAZeti-6" value="" style="fillColor=#1EB5BD;strokeColor=none;whiteSpace=wrap;html=1;" parent="1" vertex="1">
                    <mxGeometry x="-540" y="-530" width="50" height="50" as="geometry"/>
                </mxCell>
                <mxCell id="8-nbn5OPSdqifUeAZeti-7" value="" style="fillColor=#78CDD1;strokeColor=none;whiteSpace=wrap;html=1;" parent="1" vertex="1">
                    <mxGeometry x="-540" y="-590" width="50" height="50" as="geometry"/>
                </mxCell>
                <mxCell id="8-nbn5OPSdqifUeAZeti-15" value="" style="verticalLabelPosition=bottom;html=1;verticalAlign=top;strokeWidth=2;shape=mxgraph.lean_mapping.operator;fillColor=#1ba1e2;fontColor=#ffffff;strokeColor=#006EAF;" parent="1" vertex="1">
                    <mxGeometry x="-130" y="-504" width="100" height="84" as="geometry"/>
                </mxCell>
                <mxCell id="8-nbn5OPSdqifUeAZeti-16" value="" style="verticalLabelPosition=bottom;html=1;verticalAlign=top;strokeWidth=2;shape=mxgraph.lean_mapping.sequenced_pull_ball;fillColor=#1ba1e2;fontColor=#ffffff;strokeColor=#006EAF;" parent="1" vertex="1">
                    <mxGeometry x="-120" y="-600" width="80" height="78" as="geometry"/>
                </mxCell>
                <mxCell id="8-nbn5OPSdqifUeAZeti-17" value="LABEL" style="shape=step;perimeter=stepPerimeter;whiteSpace=wrap;html=1;fixedSize=1;size=10;fillColor=#10739E;strokeColor=none;fontSize=17;fontStyle=1;align=center;" parent="1" vertex="1">
                    <mxGeometry x="-360" y="-410" width="200" height="30" as="geometry"/>
                </mxCell>
                <mxCell id="8-nbn5OPSdqifUeAZeti-18" value="&amp;nbsp;- Lorem ipsum dolor sit amet&lt;br&gt;&amp;nbsp;- consectetur adipisicing elit&lt;br&gt;&amp;nbsp;- sed do eiusmod tempor&lt;br&gt;&amp;nbsp;- incididunt ut labore et dolore&lt;br&gt;&amp;nbsp;- magna aliqua." style="shape=rect;fillColor=#B1DDF0;strokeColor=none;fontSize=12;html=1;whiteSpace=wrap;align=left;verticalAlign=top;spacing=5;" parent="1" vertex="1">
                    <mxGeometry x="-360" y="-370" width="190" height="120" as="geometry"/>
                </mxCell>
                <mxCell id="8-nbn5OPSdqifUeAZeti-19" value="Note" style="shape=note;strokeWidth=2;fontSize=14;size=20;whiteSpace=wrap;html=1;fillColor=#fff2cc;strokeColor=#d6b656;fontColor=#666600;" parent="1" vertex="1">
                    <mxGeometry x="-370" y="-1050" width="110" height="60" as="geometry"/>
                </mxCell>
                <mxCell id="MjpvobpdnyUtgRbLNSuW-2" value="&lt;font style=&quot;font-size: 14px;&quot;&gt;Class&lt;/font&gt;" style="swimlane;fontStyle=1;align=center;verticalAlign=top;childLayout=stackLayout;horizontal=1;startSize=26;horizontalStack=0;resizeParent=1;resizeParentMax=0;resizeLast=0;collapsible=1;marginBottom=0;whiteSpace=wrap;html=1;fillColor=#FFC82E;fontColor=light-dark(#000000, #121212);strokeColor=#FFA12D;strokeWidth=4;" parent="1" vertex="1">
                    <mxGeometry x="-715" y="-500" width="160" height="114" as="geometry">
                        <mxRectangle x="-715" y="-500" width="100" height="30" as="alternateBounds"/>
                    </mxGeometry>
                </mxCell>
                <mxCell id="MjpvobpdnyUtgRbLNSuW-3" value="public int i;&lt;div&gt;&lt;br&gt;&lt;/div&gt;" style="text;strokeColor=#FFA12D;fillColor=#FFD300;align=left;verticalAlign=top;spacingLeft=4;spacingRight=4;overflow=hidden;rotatable=0;points=[[0,0.5],[1,0.5]];portConstraint=eastwest;whiteSpace=wrap;html=1;fillOpacity=70;strokeWidth=0;" parent="MjpvobpdnyUtgRbLNSuW-2" vertex="1">
                    <mxGeometry y="26" width="160" height="44" as="geometry"/>
                </mxCell>
                <mxCell id="MjpvobpdnyUtgRbLNSuW-4" value="public void test (int,int);&lt;div&gt;&lt;br&gt;&lt;/div&gt;" style="text;strokeColor=#FFA12D;fillColor=#FFC82E;align=left;verticalAlign=top;spacingLeft=4;spacingRight=4;overflow=hidden;rotatable=0;points=[[0,0.5],[1,0.5]];portConstraint=eastwest;whiteSpace=wrap;html=1;fillOpacity=70;" parent="MjpvobpdnyUtgRbLNSuW-2" vertex="1">
                    <mxGeometry y="70" width="160" height="44" as="geometry"/>
                </mxCell>
                <mxCell id="LzmgkFYy1Md2UqgXbFGr-2" value="&lt;h1 style=&quot;margin-top: 0px;&quot;&gt;Heading&lt;/h1&gt;&lt;p&gt;Lorem ipsum dolor sit amet, consectetur adipisicing elit, sed do eiusmod tempor incididunt ut labore et dolore magna aliqua.&lt;/p&gt;" style="text;html=1;whiteSpace=wrap;overflow=hidden;rounded=0;" vertex="1" parent="1">
                    <mxGeometry x="-820" y="-320" width="180" height="120" as="geometry"/>
                </mxCell>
                <mxCell id="LzmgkFYy1Md2UqgXbFGr-22" value="&lt;font style=&quot;font-size: 14px;&quot;&gt;Package1&lt;/font&gt;" style="shape=folder;fontStyle=1;tabWidth=110;tabHeight=30;tabPosition=left;html=1;boundedLbl=1;labelInHeader=1;container=1;collapsible=0;recursiveResize=0;whiteSpace=wrap;strokeColor=#A50040;strokeWidth=4;fillColor=#d80073;fontColor=#FFFFFF;opacity=50;" vertex="1" parent="1">
                    <mxGeometry x="-572.5" y="-270" width="185" height="140" as="geometry"/>
                </mxCell>
                <mxCell id="LzmgkFYy1Md2UqgXbFGr-23" value="&lt;font style=&quot;font-size: 13px; color: rgb(255, 255, 255);&quot;&gt;Packaged element1&lt;/font&gt;" style="html=1;whiteSpace=wrap;fillColor=#1ba1e2;fontColor=#ffffff;strokeColor=#006EAF;" vertex="1" parent="LzmgkFYy1Md2UqgXbFGr-22">
                    <mxGeometry width="130" height="30" relative="1" as="geometry">
                        <mxPoint x="20" y="50" as="offset"/>
                    </mxGeometry>
                </mxCell>
                <mxCell id="LzmgkFYy1Md2UqgXbFGr-24" value="&lt;font style=&quot;font-size: 13px; color: rgb(255, 255, 255);&quot;&gt;Packaged element1&lt;/font&gt;" style="html=1;whiteSpace=wrap;fillColor=#1ba1e2;fontColor=#ffffff;strokeColor=#006EAF;" vertex="1" parent="LzmgkFYy1Md2UqgXbFGr-22">
                    <mxGeometry width="130" height="30" relative="1" as="geometry">
                        <mxPoint x="20" y="90" as="offset"/>
                    </mxGeometry>
                </mxCell>
                <mxCell id="LzmgkFYy1Md2UqgXbFGr-25" value="" style="fontStyle=1;align=center;verticalAlign=top;childLayout=stackLayout;horizontal=1;horizontalStack=0;resizeParent=1;resizeParentMax=0;resizeLast=0;marginBottom=0;strokeColor=light-dark(#d51515, #ededed);strokeWidth=2;" vertex="1" parent="1">
                    <mxGeometry x="-290" y="-220" width="140" height="161" as="geometry"/>
                </mxCell>
                <mxCell id="LzmgkFYy1Md2UqgXbFGr-26" value="Component" style="html=1;align=left;spacingLeft=4;verticalAlign=top;strokeColor=#b85450;fillColor=#f8cecc;whiteSpace=wrap;strokeWidth=2;" vertex="1" parent="LzmgkFYy1Md2UqgXbFGr-25">
                    <mxGeometry width="140" height="40" as="geometry"/>
                </mxCell>
                <mxCell id="LzmgkFYy1Md2UqgXbFGr-27" value="" style="shape=module;jettyWidth=10;jettyHeight=4;strokeWidth=2;strokeColor=light-dark(#d51515, #ededed);" vertex="1" parent="LzmgkFYy1Md2UqgXbFGr-26">
                    <mxGeometry x="1" width="16" height="20" relative="1" as="geometry">
                        <mxPoint x="-25" y="9" as="offset"/>
                    </mxGeometry>
                </mxCell>
                <mxCell id="LzmgkFYy1Md2UqgXbFGr-28" value="" style="line;strokeWidth=2;fillColor=none;align=left;verticalAlign=middle;spacingTop=-1;spacingLeft=3;spacingRight=3;rotatable=0;labelPosition=right;points=[];portConstraint=eastwest;strokeColor=light-dark(#d51515, #ededed);" vertex="1" parent="LzmgkFYy1Md2UqgXbFGr-25">
                    <mxGeometry y="40" width="140" height="8" as="geometry"/>
                </mxCell>
                <mxCell id="LzmgkFYy1Md2UqgXbFGr-29" value="provided interfaces" style="html=1;align=center;spacingLeft=4;verticalAlign=top;strokeColor=#A50040;fillColor=#d80073;whiteSpace=wrap;strokeWidth=2;fontColor=#ffffff;" vertex="1" parent="LzmgkFYy1Md2UqgXbFGr-25">
                    <mxGeometry y="48" width="140" height="25" as="geometry"/>
                </mxCell>
                <mxCell id="LzmgkFYy1Md2UqgXbFGr-30" value="Interface1" style="html=1;align=left;spacingLeft=4;verticalAlign=top;strokeColor=light-dark(#d51515, #ededed);fillColor=none;whiteSpace=wrap;strokeWidth=2;" vertex="1" parent="LzmgkFYy1Md2UqgXbFGr-25">
                    <mxGeometry y="73" width="140" height="25" as="geometry"/>
                </mxCell>
                <mxCell id="LzmgkFYy1Md2UqgXbFGr-31" value="" style="line;strokeWidth=2;fillColor=none;align=left;verticalAlign=middle;spacingTop=-1;spacingLeft=3;spacingRight=3;rotatable=0;labelPosition=right;points=[];portConstraint=eastwest;strokeColor=light-dark(#d51515, #ededed);" vertex="1" parent="LzmgkFYy1Md2UqgXbFGr-25">
                    <mxGeometry y="98" width="140" height="8" as="geometry"/>
                </mxCell>
                <mxCell id="LzmgkFYy1Md2UqgXbFGr-32" value="required interfaces" style="html=1;align=center;spacingLeft=4;verticalAlign=top;strokeColor=#A50040;fillColor=#d80073;whiteSpace=wrap;strokeWidth=2;fontColor=#ffffff;" vertex="1" parent="LzmgkFYy1Md2UqgXbFGr-25">
                    <mxGeometry y="106" width="140" height="25" as="geometry"/>
                </mxCell>
                <mxCell id="LzmgkFYy1Md2UqgXbFGr-33" value="Interface2" style="html=1;align=left;spacingLeft=4;verticalAlign=top;strokeColor=light-dark(#d51515, #ededed);fillColor=none;whiteSpace=wrap;strokeWidth=2;" vertex="1" parent="LzmgkFYy1Md2UqgXbFGr-25">
                    <mxGeometry y="131" width="140" height="30" as="geometry"/>
                </mxCell>
            </root>
        </mxGraphModel>
    </diagram>
</mxfile>